# File created by Blade
# Date/Time:  Thu Sep 25 17:33:50 2014
# Frame Rate: 120.000 fps
#------------------------------------------------------
:FULLY-SPECIFIED
:DEGREES
2781
root 0.036166 32.816918 -1.568835 10.079890 -2.371483 -0.878130
Spine -7.478577 4.620110 -0.712339
Head -7.792453 3.554942 19.108747
LeftShoulder -15.282005 20.394294 28.656505
LeftArm 21.895238 -22.253827 -28.586450
LeftForeArm 14.661086 -0.000000 17.858121
LeftHand -32.270389 -0.000000 5.797409
LeftHandThumb1 -26.253704 0.000000 33.147579
RightShoulder -19.984078 14.119029 -40.411325
RightArm -10.265567 9.563985 29.249152
RightForeArm -32.876222 0.000000 26.739225
RightHand -15.358345 -0.000000 0.104127
RightHandThumb1 -24.326973 -0.000000 -32.862282
LeftUpLeg -8.646494 8.375409 -1.302276
LeftLeg 2.333224 -0.000000 -0.000000
LeftFoot -15.046783 20.467322 -18.093466
LeftToeBase 5.826318 -0.000000 -0.000000
RightUpLeg -11.261385 -1.573477 -2.850070
RightLeg 8.545040 -0.000000 -0.000000
RightFoot -10.009342 -2.892437 -5.234815
RightToeBase -0.826130 -0.000000 0.000000
2782
root 0.020985 32.814250 -1.578632 9.978885 -2.211188 -0.890721
Spine -7.398389 4.528692 -0.754013
Head -7.599538 3.160555 19.882663
LeftShoulder -15.246122 20.378977 28.551317
LeftArm 22.173236 -22.290785 -28.558124
LeftForeArm 14.710759 -0.000000 17.913518
LeftHand -32.324637 -0.000000 5.895016
LeftHandThumb1 -26.253704 0.000000 33.147579
RightShoulder -19.984096 14.155549 -40.428275
RightArm -10.194810 9.498569 29.720215
RightForeArm -32.979406 0.000000 26.771001
RightHand -15.326881 0.000000 0.179563
RightHandThumb1 -24.326973 -0.000000 -32.862282
LeftUpLeg -8.629005 8.296461 -1.244041
LeftLeg 2.439153 -0.000000 -0.000000
LeftFoot -15.065125 20.442437 -18.022141
LeftToeBase 5.816588 -0.000000 -0.000000
RightUpLeg -11.176352 -1.499740 -2.815252
RightLeg 8.598636 -0.000000 -0.000000
RightFoot -10.062074 -3.104917 -5.176996
RightToeBase -0.762950 -0.000000 0.000000
2783
root 0.000539 32.812797 -1.589054 9.893232 -2.037483 -0.957010
Spine -7.316469 4.472472 -0.729930
Head -7.521050 2.681961 20.628232
LeftShoulder -15.076792 20.147112 28.555811
LeftArm 22.206398 -22.179992 -28.555584
LeftForeArm 15.002888 -0.000000 18.157115
LeftHand -32.075067 0.000000 5.513572
LeftHandThumb1 -26.253704 0.000000 33.147579
RightShoulder -20.053086 14.138506 -40.389667
RightArm -10.044888 9.343031 30.085960
RightForeArm -32.977973 0.000000 26.816462
RightHand -15.328106 -0.000000 0.499801
RightHandThumb1 -24.326973 -0.000000 -32.862282
LeftUpLeg -8.625210 8.197383 -1.118530
LeftLeg 2.548809 -0.000000 -0.000000
LeftFoot -15.100943 20.417356 -17.980147
LeftToeBase 5.748563 -0.000000 -0.000000
RightUpLeg -11.138943 -1.486226 -2.724281
RightLeg 8.724730 -0.000000 -0.000000
RightFoot -10.101481 -3.157831 -5.020646
RightToeBase -0.776789 -0.000000 0.000000
2784
root -0.015185 32.811152 -1.600761 9.827086 -1.859097 -1.004986
Spine -7.244407 4.387175 -0.730357
Head -7.497215 2.223864 21.355948
LeftShoulder -14.993822 20.087621 28.531743
LeftArm 22.346729 -22.164229 -28.627705
LeftForeArm 15.226143 -0.000000 18.442203
LeftHand -32.444960 -0.000000 6.144974
LeftHandThumb1 -26.253704 0.000000 33.147579
RightShoulder -20.097477 14.137263 -40.381555
RightArm -9.898163 9.239976 30.508114
RightForeArm -33.143831 -0.000000 26.784615
RightHand -15.294019 -0.000000 0.441562
RightHandThumb1 -24.326973 -0.000000 -32.862282
LeftUpLeg -8.627083 8.038939 -1.018737
LeftLeg 2.622767 -0.000000 -0.000000
LeftFoot -15.144917 20.441529 -17.907238
LeftToeBase 5.843778 -0.000000 -0.000000
RightUpLeg -11.101885 -1.465265 -2.651774
RightLeg 8.804835 -0.000000 -0.000000
RightFoot -10.142305 -3.273336 -4.887184
RightToeBase -0.712963 -0.000000 0.000000
2785
root -0.036541 32.810894 -1.610065 9.758716 -1.676573 -1.054420
Spine -7.150490 4.282264 -0.727652
Head -7.655179 1.731868 21.968071
LeftShoulder -14.938796 20.105143 28.416539
LeftArm 22.484494 -22.266607 -28.642646
LeftForeArm 15.614906 0.000000 18.746530
LeftHand -32.534316 -0.000000 6.007655
LeftHandThumb1 -26.253704 0.000000 33.147579
RightShoulder -20.199449 13.915694 -40.277286
RightArm -9.541452 9.245687 30.904511
RightForeArm -33.216782 -0.000000 26.774330
RightHand -15.315643 -0.000000 0.564999
RightHandThumb1 -24.326973 -0.000000 -32.862282
LeftUpLeg -8.622121 7.953263 -0.909021
LeftLeg 2.691529 -0.000000 -0.000000
LeftFoot -15.130286 20.394801 -17.893855
LeftToeBase 5.795819 -0.000000 -0.000000
RightUpLeg -11.050654 -1.458198 -2.557956
RightLeg 8.864676 -0.000000 -0.000000
RightFoot -10.152761 -3.420576 -4.848179
RightToeBase -0.694670 -0.000000 0.000000
2786
root -0.052092 32.809970 -1.624044 9.725103 -1.499871 -1.104262
Spine -7.054458 4.189909 -0.691033
Head -7.955199 1.305549 22.429725
LeftShoulder -14.908845 20.049781 28.327202
LeftArm 22.652448 -22.059224 -28.608998
LeftForeArm 15.829010 -0.000000 18.823584
LeftHand -32.639071 -0.000000 6.365408
LeftHandThumb1 -26.253704 0.000000 33.147579
RightShoulder -20.327986 13.790675 -40.267418
RightArm -9.204635 8.892209 31.305257
RightForeArm -33.090760 0.000000 26.632626
RightHand -15.350083 -0.000000 0.446551
RightHandThumb1 -24.326973 -0.000000 -32.862282
LeftUpLeg -8.658715 7.873447 -0.819176
LeftLeg 2.749354 -0.000000 -0.000000
LeftFoot -15.120643 20.360947 -17.798604
LeftToeBase 5.874718 -0.000000 -0.000000
RightUpLeg -11.058958 -1.451961 -2.474477
RightLeg 8.955530 -0.000000 -0.000000
RightFoot -10.154174 -3.575947 -4.831307
RightToeBase -0.731924 -0.000000 0.000000
